<?xml version="1.0" ?><!DOCTYPE svg  PUBLIC '-//W3C//DTD SVG 1.1//EN'  'http://www.w3.org/Graphics/SVG/1.1/DTD/svg11.dtd'><svg enable-background="new 0 0 512 512" height="512px" id="Layer_3" version="1.1" viewBox="0 0 512 512" width="512px" xml:space="preserve" xmlns="http://www.w3.org/2000/svg" xmlns:xlink="http://www.w3.org/1999/xlink"><g><path d="M256.002,21.548H42.598v55.875c0,19.567,2.648,38.515,7.58,56.517   c22.629,82.59,93.623,145.167,180.645,155.4h50.342c87.027-10.228,158.029-72.806,180.658-155.401   c4.932-18.002,7.58-36.949,7.58-56.518V21.548H256.002z" fill="#22B2DA"/><path d="M230.836,440.124h-68.938c-27.275,0-49.385,22.107-49.385,49.383c0,0.316,0.018,0.631,0.023,0.945H256   h0.002h143.463c0.006-0.316,0.023-0.629,0.023-0.945c0-4.262-0.539-8.397-1.555-12.342c-0.609-2.367-1.389-4.665-2.326-6.881   c-0.313-0.738-0.643-1.468-0.988-2.188c-7.977-16.552-24.912-27.973-44.514-27.973h-0.002h-68.939v-0.429h-50.328V440.124z" fill="#3B4A6B"/><polygon fill="#F23557" points="230.836,289.342 230.836,439.695 281.164,439.695 281.164,289.34 230.822,289.34  "/></g></svg>